<?xml version="1.0" encoding="UTF-8" standalone="no"?>
<svg
   height="256"
   width="256"
   version="1.1"
   id="svg1844"
   sodipodi:docname="icon_with_borders.svg"
   xml:space="preserve"
   inkscape:version="1.2.2 (732a01da63, 2022-12-09)"
   xmlns:inkscape="http://www.inkscape.org/namespaces/inkscape"
   xmlns:sodipodi="http://sodipodi.sourceforge.net/DTD/sodipodi-0.dtd"
   xmlns="http://www.w3.org/2000/svg"
   xmlns:svg="http://www.w3.org/2000/svg"><defs
     id="defs1848" /><sodipodi:namedview
     id="namedview1846"
     pagecolor="#ffffff"
     bordercolor="#000000"
     borderopacity="0.25"
     inkscape:showpageshadow="2"
     inkscape:pageopacity="0"
     inkscape:pagecheckerboard="0"
     inkscape:deskcolor="#d1d1d1"
     showgrid="false"
     inkscape:zoom="2.3119077"
     inkscape:cx="122.84228"
     inkscape:cy="140.144"
     inkscape:window-width="1920"
     inkscape:window-height="1017"
     inkscape:window-x="-8"
     inkscape:window-y="-8"
     inkscape:window-maximized="1"
     inkscape:current-layer="svg1844" /><path
     d="m 103.36374,8.461536 c -9.822446,2.183624 -19.538929,5.22378 -28.648619,9.809005 0.20833,8.043917 0.728392,15.75124 1.782592,23.580076 -3.537781,2.266569 -7.255866,4.211841 -10.560241,6.865172 -3.35742,2.582929 -6.786551,5.054032 -9.82665,8.074841 -6.07345,-4.017145 -12.501578,-7.79223 -19.123827,-11.124569 -7.138253,7.682234 -13.812709,15.973768 -19.26502,25.252242 4.284938,6.726126 8.881142,13.486557 13.137504,18.758627 v 45.82739 5.82068 5.29709 c 0.104162,7.9e-4 0.208153,0.005 0.311354,0.0145 l 34.911006,3.36606 c 1.828688,0.1765 3.261827,1.64846 3.389139,3.48101 l 1.076616,15.41066 30.452936,2.17314 2.09802,-14.22362 c 0.27198,-1.84412 1.85371,-3.21084 3.71904,-3.21084 h 36.83209 c 1.86437,0 3.44615,1.36672 3.71814,3.21084 l 2.09802,14.22362 30.45384,-2.17314 1.07572,-15.41066 c 0.12828,-1.83255 1.56045,-3.30354 3.38914,-3.48101 l 34.89743,-3.36606 c 0.10317,-0.01 0.20628,-0.0135 0.31045,-0.0145 v -4.54404 l 0.0145,-0.005 v -52.3966 c 4.91597,-6.18869 9.571,-13.015236 13.1375,-18.75863 -5.45038,-9.278474 -12.12858,-17.570008 -19.26683,-25.252242 -6.62032,3.332339 -13.05083,7.107424 -19.12428,11.124569 -3.03914,-3.020809 -6.46214,-5.491912 -9.82439,-8.074841 -3.30341,-2.653331 -7.02603,-4.598603 -10.55706,-6.865172 1.0513,-7.828836 1.57103,-15.536159 1.78032,-23.580076 -9.11065,-4.585225 -18.82587,-7.625381 -28.65316,-9.809005 -3.92357,6.594277 -7.51173,13.735304 -10.63671,20.716346 -3.70561,-0.619208 -7.42846,-0.848512 -11.15624,-0.892879 v -0.0059 c -0.0261,0 -0.0502,0.0059 -0.0725,0.0059 -0.0232,0 -0.0475,-0.0059 -0.0707,-0.0059 v 0.0059 c -3.73455,0.04436 -7.45421,0.273671 -11.16077,0.892879 C 110.87906,22.196357 107.29294,15.05533 103.36357,8.461053 Z M 75.744669,91.76499 c 11.620275,0 21.038565,9.41127 21.038565,21.02769 0,11.62415 -9.41829,21.04083 -21.038565,21.04083 -11.614492,0 -21.035844,-9.41668 -21.035844,-21.04083 0,-11.61642 9.421352,-21.02769 21.035844,-21.02769 z m 98.979291,0 c 11.61354,0 21.03404,9.41127 21.03404,21.02769 0,11.62415 -9.4205,21.04083 -21.03404,21.04083 -11.6222,0 -21.04036,-9.41668 -21.04036,-21.04083 0,-11.61642 9.41816,-21.02769 21.04036,-21.02769 z m -49.49214,12.30571 c 3.74034,0 6.77829,2.75919 6.77829,6.15422 v 19.3682 c 0,3.39794 -3.03795,6.15466 -6.77829,6.15466 -3.74032,0 -6.77194,-2.75672 -6.77194,-6.15466 v -19.3682 c 0,-3.39503 3.03162,-6.15422 6.77194,-6.15422 z"
     stroke-width="0.9645"
     id="path1836"
     style="stroke:#ffffff" /><path
     d="m 91.720944,114.04081 c 0,7.71019 -6.24899,13.95919 -13.964979,13.95919 -7.712132,0 -13.964977,-6.249 -13.964977,-13.95919 0,-7.71021 6.252845,-13.96498 13.964977,-13.96498 7.715989,0 13.964979,6.25477 13.964979,13.96498"
     id="path1840"
     style="stroke-width:0.9645;stroke:#ffffff" /><path
     d="m 158.74716,114.04081 c 0,7.71019 6.24705,13.95919 13.95726,13.95919 7.71792,0 13.96498,-6.249 13.96498,-13.95919 0,-7.71021 -6.24706,-13.96498 -13.96498,-13.96498 -7.71021,0 -13.95726,6.25477 -13.95726,13.96498"
     id="path1842"
     style="stroke-width:0.9645;stroke:#ffffff" /><style
     type="text/css"
     id="style3560">
	.st0{fill:#000000;}
</style><g
     id="g3566"
     transform="matrix(0.18329219,0,0,0.18329219,125.78552,176.51356)"
     style="fill:#000000;stroke:#ffffff;stroke-width:5.26481788;stroke-dasharray:none">
	<path
   class="st0"
   d="M 511.529,337.45 H 7.928 c 7.129,26.637 16.478,44.576 16.478,44.576 h 147.537 v -24.6 l 50.715,24.6 h 285.854 c 3.276,-17.138 4.149,-31.83 3.017,-44.576 z"
   id="path3562"
   style="fill:#000000;stroke:#ffffff;stroke-width:5.26481788;stroke-dasharray:none" />
	<path
   class="st0"
   d="m 373.266,245.244 c -21.795,-4.207 -40.727,-13.456 -56.888,-24.976 -1.406,1.403 -3.138,2.505 -5.192,3.081 l -64.48,17.956 c -6.336,1.769 -12.905,-1.937 -14.675,-8.273 -1.762,-6.344 1.949,-12.913 8.28,-14.683 l 55.31,-15.392 c -8.076,-7.756 -15.184,-15.844 -21.328,-23.716 l -58.737,15.084 c -6.369,1.636 -12.859,-2.204 -14.495,-8.565 -1.636,-6.378 2.204,-12.872 8.577,-14.508 l 49.988,-12.847 C 249.267,142.036 244.175,129.974 244.175,129.974 H 18.262 c 0,0 3.072,43.03 -13.832,112.198 -6.194,25.31 -5.158,50.82 -1.377,72.99 H 506.838 C 490.503,269.16 437.237,257.582 373.266,245.244 Z"
   id="path3564"
   style="fill:#000000;stroke:#ffffff;stroke-width:5.26481788;stroke-dasharray:none" />
</g><g
     id="g3635"
     transform="matrix(-0.18329219,0,0,0.18329219,124.67871,176.51356)"
     style="fill:#000000;stroke:#ffffff;stroke-width:5.26481788;stroke-dasharray:none">
	<path
   class="st0"
   d="M 511.529,337.45 H 7.928 c 7.129,26.637 16.478,44.576 16.478,44.576 h 147.537 v -24.6 l 50.715,24.6 h 285.854 c 3.276,-17.138 4.149,-31.83 3.017,-44.576 z"
   id="path3631"
   style="fill:#000000;stroke:#ffffff;stroke-width:5.26481788;stroke-dasharray:none" />
	<path
   class="st0"
   d="m 373.266,245.244 c -21.795,-4.207 -40.727,-13.456 -56.888,-24.976 -1.406,1.403 -3.138,2.505 -5.192,3.081 l -64.48,17.956 c -6.336,1.769 -12.905,-1.937 -14.675,-8.273 -1.762,-6.344 1.949,-12.913 8.28,-14.683 l 55.31,-15.392 c -8.076,-7.756 -15.184,-15.844 -21.328,-23.716 l -58.737,15.084 c -6.369,1.636 -12.859,-2.204 -14.495,-8.565 -1.636,-6.378 2.204,-12.872 8.577,-14.508 l 49.988,-12.847 C 249.267,142.036 244.175,129.974 244.175,129.974 H 18.262 c 0,0 3.072,43.03 -13.832,112.198 -6.194,25.31 -5.158,50.82 -1.377,72.99 H 506.838 C 490.503,269.16 437.237,257.582 373.266,245.244 Z"
   id="path3633"
   style="fill:#000000;stroke:#ffffff;stroke-width:5.26481788;stroke-dasharray:none" />
</g><path
     d="m 188.27355,157.18108 -1.0812,15.49274 c -0.1302,1.86728 -1.61554,3.35357 -3.4828,3.48763 l -37.18625,2.65333 c -0.0906,0.007 -0.18132,0.01 -0.27103,0.01 -1.84797,0 -3.44229,-1.35609 -3.71524,-3.21179 l -2.13251,-14.46169 h -30.34216 l -2.13251,14.46169 c -0.28646,1.94636 -2.02641,3.34585 -3.98627,3.20214 l -37.186238,-2.65367 c -1.86727,-0.13406 -3.352599,-1.62035 -3.482808,-3.48762 L 62.193333,157.1811 30.801796,154.15451 c 0.01447,3.37381 0.05787,7.06977 0.05787,7.80569 0,33.15367 42.056963,49.08912 94.309634,49.27237 h 0.0636 0.0647 c 52.25269,-0.18325 94.29518,-16.1187 94.29518,-49.27237 0,-0.74942 0.0453,-4.42995 0.0607,-7.80569 z"
     fill="#010102"
     id="path1838"
     style="stroke-width:0.965;stroke:#ffffff;stroke-dasharray:none" /></svg>
