<?xml version="1.0" encoding="UTF-8" standalone="no"?>
<svg
   height="1024"
   width="1024"
   version="1.1"
   id="svg1844"
   sodipodi:docname="icon_with_borders.svg"
   xml:space="preserve"
   inkscape:version="1.2.2 (732a01da63, 2022-12-09)"
   xmlns:inkscape="http://www.inkscape.org/namespaces/inkscape"
   xmlns:sodipodi="http://sodipodi.sourceforge.net/DTD/sodipodi-0.dtd"
   xmlns="http://www.w3.org/2000/svg"
   xmlns:svg="http://www.w3.org/2000/svg"><defs
     id="defs1848" /><sodipodi:namedview
     id="namedview1846"
     pagecolor="#ffffff"
     bordercolor="#000000"
     borderopacity="0.25"
     inkscape:showpageshadow="2"
     inkscape:pageopacity="0.0"
     inkscape:pagecheckerboard="0"
     inkscape:deskcolor="#d1d1d1"
     showgrid="false"
     inkscape:zoom="1.1559539"
     inkscape:cx="362.03867"
     inkscape:cy="453.30529"
     inkscape:window-width="1920"
     inkscape:window-height="1017"
     inkscape:window-x="-8"
     inkscape:window-y="-8"
     inkscape:window-maximized="1"
     inkscape:current-layer="svg1844" /><path
     d="m 267.76678,76.875 c -25.20556,5.603436 -50.1392,13.404829 -73.51572,25.17105 0.5346,20.64163 1.86914,40.41952 4.57434,60.50923 -9.07836,5.81629 -18.6194,10.80806 -27.09881,17.61683 -8.61553,6.62809 -17.41508,12.96922 -25.21633,20.72097 C 130.92508,190.58464 114.42975,180.89733 97.436289,172.34615 79.118698,192.05965 61.991265,213.33671 48,237.14636 c 10.99565,17.26 22.790047,34.60809 33.712369,48.1368 v 117.59845 14.93657 13.59294 c 0.2673,0.002 0.534143,0.0124 0.79897,0.0372 l 89.585711,8.63771 c 4.69263,0.45293 8.37023,4.23015 8.69693,8.93267 l 2.76272,39.54555 78.14581,5.57654 5.38375,-36.49948 c 0.69796,-4.73223 4.75683,-8.23938 9.54351,-8.23938 h 94.51541 c 4.78421,0 8.84324,3.50715 9.5412,8.23938 l 5.38375,36.49948 78.14813,-5.57654 2.7604,-39.54555 c 0.32917,-4.70252 4.0043,-8.47727 8.69693,-8.93267 l 89.55087,-8.63771 c 0.26483,-0.0247 0.52935,-0.0347 0.79665,-0.0372 v -11.66055 l 0.0372,-0.0116 V 285.28316 c 12.61496,-15.88087 24.56032,-33.39859 33.71237,-48.1368 -13.98632,-23.80965 -31.12335,-45.08671 -49.44094,-64.80021 -16.98851,8.55118 -33.48995,18.23849 -49.07513,28.54693 -7.79877,-7.75175 -16.58262,-14.09288 -25.21053,-20.72097 -8.47693,-6.80877 -18.02963,-11.80054 -27.09067,-17.61683 2.69777,-20.08971 4.03145,-39.8676 4.56853,-60.50923 -23.379,-11.766221 -48.3094,-19.567614 -73.52734,-25.17105 -10.06836,16.921684 -19.276,35.24639 -27.29505,53.16056 -9.50901,-1.58896 -19.06229,-2.17738 -28.62823,-2.29123 v -0.0151 c -0.0668,0 -0.12888,0.0151 -0.1858,0.0151 -0.0594,0 -0.12176,-0.0151 -0.18116,-0.0151 v 0.0151 c -9.58326,0.11385 -19.12835,0.70227 -28.63984,2.29123 -8.0141,-17.91417 -17.21649,-36.238876 -27.2997,-53.16056 z M 196.893,290.64138 c 29.81899,0 53.9874,24.15043 53.9874,53.95952 0,29.8289 -24.16841,53.99321 -53.9874,53.99321 -29.80414,0 -53.98043,-24.16431 -53.98043,-53.99321 0,-29.80909 24.17629,-53.95952 53.98043,-53.95952 z m 253.99244,0 c 29.80167,0 53.97579,24.15043 53.97579,53.95952 0,29.8289 -24.17412,53.99321 -53.97579,53.99321 -29.82394,0 -53.99205,-24.16431 -53.99205,-53.99321 0,-29.80909 24.16811,-53.95952 53.99205,-53.95952 z m -127.00261,31.5779 c 9.59812,0 17.39387,7.08039 17.39387,15.79244 v 49.70106 c 0,8.71949 -7.79575,15.7936 -17.39387,15.7936 -9.59811,0 -17.3776,-7.07411 -17.3776,-15.7936 v -49.70106 c 0,-8.71205 7.77949,-15.79244 17.3776,-15.79244 z"
     stroke-width="2.47502"
     id="path1836"
     inkscape:export-filename="path1836.png"
     inkscape:export-xdpi="96"
     inkscape:export-ydpi="96"
     style="stroke:#ffffff" /><path
     d="m 237.88997,347.80373 c 0,19.78528 -16.03563,35.82091 -35.83575,35.82091 -19.79023,0 -35.83576,-16.03563 -35.83576,-35.82091 0,-19.78528 16.04553,-35.83576 35.83576,-35.83576 19.80012,0 35.83575,16.05048 35.83575,35.83576"
     id="path1840"
     style="stroke-width:2.47502;stroke:#ffffff" /><path
     d="m 409.88708,347.80373 c 0,19.78528 16.03067,35.82091 35.81595,35.82091 19.80508,0 35.83576,-16.03563 35.83576,-35.82091 0,-19.78528 -16.03068,-35.83576 -35.83576,-35.83576 -19.78528,0 -35.81595,16.05048 -35.81595,35.83576"
     id="path1842"
     style="stroke-width:2.47502;stroke:#ffffff" /><style
     type="text/css"
     id="style3560">
	.st0{fill:#000000;}
</style><g
     id="g3566"
     transform="matrix(0.47034912,0,0,0.47034912,325.30367,508.11611)"
     style="fill:#000000;stroke:#ffffff">
	<path
   class="st0"
   d="M 511.529,337.45 H 7.928 c 7.129,26.637 16.478,44.576 16.478,44.576 h 147.537 v -24.6 l 50.715,24.6 h 285.854 c 3.276,-17.138 4.149,-31.83 3.017,-44.576 z"
   id="path3562"
   style="fill:#000000;stroke:#ffffff" />
	<path
   class="st0"
   d="m 373.266,245.244 c -21.795,-4.207 -40.727,-13.456 -56.888,-24.976 -1.406,1.403 -3.138,2.505 -5.192,3.081 l -64.48,17.956 c -6.336,1.769 -12.905,-1.937 -14.675,-8.273 -1.762,-6.344 1.949,-12.913 8.28,-14.683 l 55.31,-15.392 c -8.076,-7.756 -15.184,-15.844 -21.328,-23.716 l -58.737,15.084 c -6.369,1.636 -12.859,-2.204 -14.495,-8.565 -1.636,-6.378 2.204,-12.872 8.577,-14.508 l 49.988,-12.847 C 249.267,142.036 244.175,129.974 244.175,129.974 H 18.262 c 0,0 3.072,43.03 -13.832,112.198 -6.194,25.31 -5.158,50.82 -1.377,72.99 H 506.838 C 490.503,269.16 437.237,257.582 373.266,245.244 Z"
   id="path3564"
   style="fill:#000000;stroke:#ffffff" />
</g><g
     id="g3635"
     transform="matrix(-0.47034912,0,0,0.47034912,322.46348,508.11611)"
     style="fill:#000000;stroke:#ffffff">
	<path
   class="st0"
   d="M 511.529,337.45 H 7.928 c 7.129,26.637 16.478,44.576 16.478,44.576 h 147.537 v -24.6 l 50.715,24.6 h 285.854 c 3.276,-17.138 4.149,-31.83 3.017,-44.576 z"
   id="path3631"
   style="fill:#000000;stroke:#ffffff" />
	<path
   class="st0"
   d="m 373.266,245.244 c -21.795,-4.207 -40.727,-13.456 -56.888,-24.976 -1.406,1.403 -3.138,2.505 -5.192,3.081 l -64.48,17.956 c -6.336,1.769 -12.905,-1.937 -14.675,-8.273 -1.762,-6.344 1.949,-12.913 8.28,-14.683 l 55.31,-15.392 c -8.076,-7.756 -15.184,-15.844 -21.328,-23.716 l -58.737,15.084 c -6.369,1.636 -12.859,-2.204 -14.495,-8.565 -1.636,-6.378 2.204,-12.872 8.577,-14.508 l 49.988,-12.847 C 249.267,142.036 244.175,129.974 244.175,129.974 H 18.262 c 0,0 3.072,43.03 -13.832,112.198 -6.194,25.31 -5.158,50.82 -1.377,72.99 H 506.838 C 490.503,269.16 437.237,257.582 373.266,245.244 Z"
   id="path3633"
   style="fill:#000000;stroke:#ffffff" />
</g><path
     d="m 485.65526,458.50671 -2.7745,39.75618 c -0.33412,4.79164 -4.14565,8.60564 -8.93728,8.94966 l -95.42424,6.80877 c -0.23265,0.0173 -0.4653,0.0248 -0.69548,0.0248 -4.74213,0 -8.83333,-3.47987 -9.53376,-8.2418 l -5.47226,-37.11039 h -77.86153 l -5.47226,37.11039 c -0.73508,4.99458 -5.20001,8.58583 -10.22924,8.21705 l -95.42424,-6.80877 c -4.79163,-0.34402 -8.60316,-4.15802 -8.93729,-8.94966 l -2.77449,-39.75618 -80.554344,-7.7666 c 0.03713,8.65761 0.148501,18.14187 0.148501,20.03031 0,85.0762 107.923073,125.96841 242.009543,126.43866 h 0.16335 0.16582 c 134.08647,-0.47025 241.97242,-41.36246 241.97242,-126.43866 0,-1.92309 0.11632,-11.36775 0.15592,-20.03031 z"
     fill="#010102"
     id="path1838"
     style="stroke-width:2.47502;stroke:#ffffff" /></svg>
